<?xml version="1.0" encoding="utf-8"?>
<!-- Generator: Adobe Illustrator 18.0.0, SVG Export Plug-In . SVG Version: 6.00 Build 0)  -->
<!DOCTYPE svg PUBLIC "-//W3C//DTD SVG 1.1//EN" "http://www.w3.org/Graphics/SVG/1.1/DTD/svg11.dtd">
<svg version="1.1" id="Layer_1" xmlns="http://www.w3.org/2000/svg" xmlns:xlink="http://www.w3.org/1999/xlink" x="0px" y="0px"
	 viewBox="0 0 200 200" enable-background="new 0 0 200 200" xml:space="preserve">
<g>
	<path class="arrow" fill="#FFFFFF" d="M100,0c55.1,0,100,44.9,100,100c0,55.1-44.9,100-100,100S0,155.1,0,100C0,44.9,44.9,0,100,0z M100,193.8
		c51.7,0,93.8-42.1,93.8-93.8c0-51.7-42.1-93.8-93.8-93.8C48.3,6.2,6.2,48.3,6.2,100C6.2,151.7,48.3,193.8,100,193.8z"/>
	<path class="arrow" fill="#FFFFFF" d="M101.1,35C101.1,35,101.2,35,101.1,35c1.1,0,2.2,0.6,2.7,1.6l54.6,98.9c0.8,1.5,0.3,3.4-1.2,4.2
		c-1.5,0.8-3.4,0.3-4.2-1.2l-51.9-94.1l-54.2,94.2c-0.9,1.5-2.7,2-4.2,1.1c-1.5-0.9-2-2.7-1.1-4.2l56.9-98.9
		C99,35.6,100,35,101.1,35z"/>
</g>
</svg>
