<?xml version="1.0" encoding="utf-8"?>
<!-- Generator: Adobe Illustrator 18.0.0, SVG Export Plug-In . SVG Version: 6.00 Build 0)  -->
<!DOCTYPE svg PUBLIC "-//W3C//DTD SVG 1.1//EN" "http://www.w3.org/Graphics/SVG/1.1/DTD/svg11.dtd">
<svg version="1.1" id="Layer_1" xmlns="http://www.w3.org/2000/svg" xmlns:xlink="http://www.w3.org/1999/xlink" x="0px" y="0px"
	 viewBox="0 0 200 200" enable-background="new 0 0 200 200" xml:space="preserve">
<g>
	<path fill="#939598" d="M0,100C0,44.9,44.9,0,100,0c55.1,0,100,44.9,100,100c0,55.1-44.9,100-100,100C44.9,200,0,155.1,0,100z
		 M193.8,100c0-51.7-42.1-93.8-93.8-93.8C48.3,6.2,6.2,48.3,6.2,100c0,51.7,42.1,93.8,93.8,93.8C151.7,193.8,193.8,151.7,193.8,100z
		"/>
	<path fill="#939598" d="M35.1,98.9C35.1,98.8,35.1,98.8,35.1,98.9c0-1.1,0.6-2.2,1.6-2.7l98.9-54.6c1.5-0.8,3.4-0.3,4.2,1.2
		c0.8,1.5,0.3,3.4-1.2,4.2L44.5,98.9l94.2,54.2c1.5,0.9,2,2.7,1.1,4.2c-0.9,1.5-2.7,2-4.2,1.1l-98.9-56.9
		C35.6,101,35.1,100,35.1,98.9z"/>
</g>
</svg>
