<?xml version="1.0" encoding="utf-8"?>
<!-- Generator: Adobe Illustrator 18.0.0, SVG Export Plug-In . SVG Version: 6.00 Build 0)  -->
<!DOCTYPE svg PUBLIC "-//W3C//DTD SVG 1.1//EN" "http://www.w3.org/Graphics/SVG/1.1/DTD/svg11.dtd">
<svg version="1.1" id="Layer_1" xmlns="http://www.w3.org/2000/svg" xmlns:xlink="http://www.w3.org/1999/xlink" x="0px" y="0px"
	 viewBox="0 0 200 200" enable-background="new 0 0 200 200" xml:space="preserve">
<g>
	<path fill="#939598" d="M200,100c0,55.1-44.9,100-100,100C44.9,200,0,155.1,0,100C0,44.9,44.9,0,100,0C155.1,0,200,44.9,200,100z
		 M6.2,100c0,51.7,42.1,93.8,93.8,93.8c51.7,0,93.8-42.1,93.8-93.8c0-51.7-42.1-93.8-93.8-93.8C48.3,6.2,6.2,48.3,6.2,100z"/>
	<path fill="#939598" d="M164.9,101.1C164.9,101.2,164.9,101.2,164.9,101.1c0,1.1-0.6,2.2-1.6,2.7l-98.9,54.6
		c-1.5,0.8-3.4,0.3-4.2-1.2c-0.8-1.5-0.3-3.4,1.2-4.2l94.1-51.9L61.4,46.9c-1.5-0.9-2-2.7-1.1-4.2c0.9-1.5,2.7-2,4.2-1.1l98.9,56.9
		C164.4,99,164.9,100,164.9,101.1z"/>
</g>
</svg>
