<?xml version="1.0" encoding="utf-8"?>
<!-- Generator: Adobe Illustrator 18.0.0, SVG Export Plug-In . SVG Version: 6.00 Build 0)  -->
<!DOCTYPE svg PUBLIC "-//W3C//DTD SVG 1.1//EN" "http://www.w3.org/Graphics/SVG/1.1/DTD/svg11.dtd">
<svg version="1.1" id="Layer_1" xmlns="http://www.w3.org/2000/svg" xmlns:xlink="http://www.w3.org/1999/xlink" x="0px" y="0px"
	 viewBox="0 0 200 200" enable-background="new 0 0 200 200" xml:space="preserve">
<g>
	<path class="arrow" fill="#FFFFFF" d="M100,200C44.9,200,0,155.1,0,100C0,44.9,44.9,0,100,0c55.1,0,100,44.9,100,100C200,155.1,155.1,200,100,200
		z M100,6.2C48.3,6.2,6.2,48.3,6.2,100c0,51.7,42.1,93.8,93.8,93.8c51.7,0,93.8-42.1,93.8-93.8C193.8,48.3,151.7,6.2,100,6.2z"/>
	<path class="arrow" fill="#FFFFFF" d="M148.3,150.5c-0.8,0-1.6-0.3-2.2-0.9L49.5,54.8c-1.2-1.2-1.2-3.2,0-4.4c1.2-1.2,3.2-1.2,4.4,0l96.7,94.8
		c1.2,1.2,1.2,3.2,0,4.4C149.9,150.2,149.1,150.5,148.3,150.5z"/>
	<path class="arrow" fill="#FFFFFF" d="M51.7,150.5c-0.8,0-1.6-0.3-2.2-0.9c-1.2-1.2-1.2-3.2,0-4.4l96.7-94.8c1.2-1.2,3.2-1.2,4.4,0
		c1.2,1.2,1.2,3.2,0,4.4l-96.7,94.8C53.2,150.2,52.4,150.5,51.7,150.5z"/>
</g>
</svg>
